<?xml version="1.0" encoding="utf-8"?>
<!-- Generator: Adobe Illustrator 21.0.1, SVG Export Plug-In . SVG Version: 6.00 Build 0)  -->
<svg version="1.1" id="Layer_1" xmlns="http://www.w3.org/2000/svg" xmlns:xlink="http://www.w3.org/1999/xlink" x="0px" y="0px"
	 viewBox="0 0 800 129" style="enable-background:new 0 0 800 129;" xml:space="preserve">
<style type="text/css">
	.st0{fill:#FFFFFF;}
</style>
<g>
	<g>
		<path class="st0" d="M7.7,117.5c-3.7,0-5.7-2.2-5.7-6.3V10.4c0-3.3,2.5-5.9,9.5-5.9S21,7.1,21,10.4v90.9h41.1c3,0,5.1,2.2,5.1,8.1
			c0,5.9-2.1,8.1-5.1,8.1H7.7z"/>
		<path class="st0" d="M97.8,82.3c0,13,7.8,20.9,18.9,20.9s18.9-7.9,18.9-20.9V10.4c0-3.3,2.5-5.9,9.5-5.9s9.5,2.5,9.5,5.9v72.5
			c0,22.5-16.8,36.5-37.9,36.5s-37.9-14-37.9-36.5V10.4c0-3.3,2.5-5.9,9.5-5.9c7,0,9.5,2.5,9.5,5.9V82.3z"/>
		<path class="st0" d="M228.9,112.9V37.9c0-10.8-7-17.8-15.7-17.8c-9.4,0-15.7,6.3-15.7,17.8v75.1c0,3.3-2.5,5.9-9.5,5.9
			s-9.5-2.5-9.5-5.9V39.4c0-21.7,14.3-35.5,34-35.5c11.1,0,20.8,5.1,26,12.9c5.2-7.8,14.9-12.9,26-12.9c19.7,0,34,13.8,34,35.5v73.5
			c0,3.3-2.5,5.9-9.5,5.9c-7,0-9.5-2.5-9.5-5.9V37.9c0-11.4-6.3-17.8-15.7-17.8c-8.7,0-15.7,7-15.7,17.8v75.1c0,3.3-2.5,5.9-9.5,5.9
			S228.9,116.2,228.9,112.9z"/>
		<path class="st0" d="M342.3,112.9c0,3.3-2.5,5.9-9.5,5.9s-9.5-2.5-9.5-5.9V10.4c0-3.3,2.5-5.9,9.5-5.9s9.5,2.5,9.5,5.9V112.9z"/>
		<path class="st0" d="M386.3,112.9c0,3.3-2.5,5.9-9.5,5.9s-9.5-2.5-9.5-5.9V40.4c0-22.5,16.8-36.5,37.9-36.5s37.9,14,37.9,36.5
			v72.5c0,3.3-2.5,5.9-9.5,5.9s-9.5-2.5-9.5-5.9V41c0-13-7.8-20.9-18.9-20.9S386.3,28,386.3,41V112.9z"/>
		<path class="st0" d="M485.9,78.3v34.6c0,3.3-2.5,5.9-9.5,5.9s-9.5-2.5-9.5-5.9V40.4c0-22.5,16.8-36.5,37.9-36.5
			c21.1,0,37.9,14,37.9,36.5v72.5c0,3.3-2.5,5.9-9.5,5.9s-9.5-2.5-9.5-5.9V78.3H485.9z M523.7,62.1V41c0-13-7.8-20.9-18.9-20.9
			S485.9,28,485.9,41v21.1H523.7z"/>
		<path class="st0" d="M629.9,5.8c3,0,5.1,2.2,5.1,8.1s-2.1,8.1-5.1,8.1h-24v90.9c0,3.3-2.5,5.9-9.5,5.9s-9.5-2.5-9.5-5.9V22h-24
			c-3,0-5.1-2.2-5.1-8.1s2.1-8.1,5.1-8.1H629.9z"/>
		<path class="st0" d="M656,117.5c-3.6,0-5.2-2.2-5.2-6.3v-99c0-4.1,1.6-6.3,5.2-6.3h52.5c3,0,5.1,2.2,5.1,8.1s-2.1,8.1-5.1,8.1
			h-38.7v29.7h34.7c3,0,5.1,2.2,5.1,8.1s-2.1,8.1-5.1,8.1h-34.7v33.5h39.5c3,0,5.1,2.2,5.1,8.1c0,5.9-2.1,8.1-5.1,8.1H656z"/>
	</g>
	<g>
		<path class="st0" d="M756.6,125.4c0-3.7-2.5-6.8-6.7-6.9h-0.3h-0.3c-8.2,0-14.7-5.5-14.7-14.2V87.7c0-8.8,6.5-14.2,14.7-14.2
			c8.2,0,14.7,5.5,14.7,14.2v16.6c0,5.2-2.3,9.2-5.8,11.6c4,1.7,5.8,5.2,5.8,9.3v1.3c0,1.3-1,2.3-3.7,2.3c-2.7,0-3.7-1-3.7-2.3
			V125.4z M756.6,87.9c0-5.1-3-8.2-7.4-8.2s-7.4,3.1-7.4,8.2V104c0,5.1,3,8.2,7.4,8.2s7.4-3.1,7.4-8.2V87.9z"/>
		<path class="st0" d="M800,116c0,1.3-1,2.3-3.7,2.3c-2.7,0-3.7-1-3.7-2.3v-3.6c0-7.5-2.1-11.8-6.8-11.8h-5.6V116
			c0,1.3-1,2.3-3.7,2.3c-2.7,0-3.7-1-3.7-2.3V76.5c0-1.4,0.6-2.4,2.4-2.4h11.6c8.1,0,13.4,4.4,13.4,13.1c0,5-2.3,8.5-5.8,10.4
			c4,2.3,5.8,6.5,5.8,12.6V116z M780.1,80.5v13.8h5.9c4.3,0,6.6-2.2,6.6-6.9c0-4.7-2.3-6.9-6.6-6.9H780.1z"/>
	</g>
</g>
</svg>
